{"glyphs":{"0":{"ha":1135,"x_min":65,"x_max":1069,"o":"m 65 735 l 65 735 q 128 1185 65 1026 q 304 1426 190 1344 q 559 1508 418 1508 l 559 1508 q 818 1426 702 1508 q 1002 1178 934 1343 q 1069 735 1069 1013 l 1069 735 q 1003 294 1069 458 q 819 47 936 130 q 559 -37 702 -37 l 559 -37 q 305 44 418 -37 q 129 286 192 125 q 65 735 65 446 m 204 732 l 204 732 q 249 356 204 483 q 380 162 293 228 q 564 96 467 96 l 564 96 q 747 161 662 96 q 876 354 832 225 l 876 354 q 931 732 931 511 l 931 732 q 882 1096 931 954 q 747 1303 833 1237 q 564 1368 660 1368 l 564 1368 q 380 1303 466 1368 q 249 1110 294 1237 q 204 732 204 982"},"1":{"ha":1135,"x_min":291,"x_max":668,"o":"m 291 1327 l 379 1471 l 668 1471 l 668 0 l 522 0 l 522 1327 l 291 1327"},"2":{"ha":1135,"x_min":61,"x_max":1060,"o":"m 237 1010 l 237 1010 l 96 1010 q 242 1368 102 1228 q 586 1508 381 1508 l 586 1508 q 915 1377 789 1508 q 1040 1068 1040 1246 l 1040 1068 q 980 834 1040 943 q 747 537 920 724 l 747 537 l 381 142 l 1060 142 l 1060 0 l 61 0 l 623 607 q 846 879 794 790 q 897 1065 897 967 l 897 1065 q 805 1279 897 1189 q 578 1368 712 1368 l 578 1368 q 344 1274 437 1368 q 237 1010 250 1180"},"3":{"ha":1135,"x_min":72,"x_max":1056,"o":"m 271 1130 l 271 1130 l 121 1130 q 278 1410 162 1312 q 552 1508 394 1508 l 552 1508 q 767 1456 667 1508 q 921 1314 866 1403 q 975 1128 975 1225 l 975 1128 q 786 827 975 938 l 786 827 q 960 701 892 784 l 960 701 q 1056 439 1056 584 l 1056 439 q 990 201 1056 314 q 810 25 924 87 q 555 -37 696 -37 l 555 -37 q 238 73 365 -37 q 72 394 111 182 l 72 394 l 216 394 q 325 187 254 251 l 325 187 q 557 106 416 106 l 557 106 q 814 202 717 106 q 911 427 911 298 l 911 427 q 863 588 911 513 q 733 701 814 663 q 480 748 651 739 l 480 748 l 480 883 q 664 919 581 883 q 785 1009 747 954 q 822 1129 822 1064 l 822 1129 q 746 1295 822 1225 q 552 1365 669 1365 l 552 1365 q 388 1312 457 1365 q 271 1130 319 1258"},"4":{"ha":1135,"x_min":52,"x_max":1080,"o":"m 52 342 l 872 1508 l 902 1508 l 902 483 l 1080 483 l 1080 342 l 902 342 l 902 0 l 755 0 l 755 342 l 52 342 m 322 483 l 755 483 l 755 1096 l 322 483"},"5":{"ha":1135,"x_min":83,"x_max":1045,"o":"m 370 1471 l 1007 1471 l 1007 1331 l 483 1331 l 410 930 q 583 958 506 958 l 583 958 q 915 824 784 958 q 1045 479 1045 689 l 1045 479 q 978 213 1045 334 q 797 28 911 92 q 532 -37 682 -37 l 532 -37 q 230 73 353 -37 q 83 356 107 182 l 83 356 l 234 356 q 292 218 251 271 q 400 133 332 165 q 541 100 467 100 l 541 100 q 790 210 686 100 q 894 485 894 320 l 894 485 q 800 727 894 634 q 549 820 706 820 l 549 820 q 234 741 419 820 l 234 741 l 370 1471"},"6":{"ha":1135,"x_min":138,"x_max":1044,"o":"m 305 842 l 751 1508 l 872 1429 l 475 827 q 625 854 555 854 l 625 854 q 922 728 800 854 q 1044 416 1044 601 l 1044 416 q 985 187 1044 289 q 818 24 926 84 q 584 -37 709 -37 l 584 -37 q 360 22 463 -37 q 197 186 256 80 q 138 413 138 292 l 138 413 q 175 603 138 503 q 305 842 211 702 l 305 842 m 590 725 l 590 725 q 372 635 462 725 q 281 415 281 544 l 281 415 q 372 197 281 287 q 590 106 462 106 l 590 106 q 809 197 718 106 q 899 415 899 287 l 899 415 q 809 635 899 544 q 590 725 718 725"},"7":{"ha":1135,"x_min":147,"x_max":1080,"o":"m 147 1332 l 147 1471 l 1080 1471 l 293 -37 l 172 25 l 852 1332 l 147 1332"},"8":{"ha":1135,"x_min":69,"x_max":1065,"o":"m 787 807 l 787 807 q 1001 638 936 733 q 1065 422 1065 543 l 1065 422 q 954 122 1065 252 l 954 122 q 565 -37 818 -37 l 565 -37 q 195 103 321 -37 q 69 410 69 242 l 69 410 q 135 632 69 533 q 355 807 201 730 l 355 807 q 193 946 247 863 q 139 1124 139 1029 l 139 1124 q 197 1312 139 1220 q 356 1456 254 1403 q 575 1508 457 1508 l 575 1508 q 788 1455 690 1508 q 942 1311 886 1402 q 997 1120 997 1220 l 997 1120 q 945 942 997 1020 q 787 807 892 864 m 568 1365 l 568 1365 q 368 1294 447 1365 q 288 1123 288 1222 l 288 1123 q 374 946 288 1025 q 573 866 459 866 l 573 866 q 711 902 646 866 q 813 1001 776 938 q 849 1126 849 1063 l 849 1126 q 777 1290 849 1215 q 568 1365 705 1365 m 575 733 l 575 733 q 320 635 423 733 q 217 405 217 536 l 217 405 q 261 252 217 324 q 384 141 305 180 q 567 102 463 102 l 567 102 q 823 197 728 102 q 918 419 918 292 l 918 419 q 818 638 918 542 q 575 733 717 733"},"9":{"ha":1135,"x_min":100,"x_max":1006,"o":"m 839 628 l 393 -37 l 272 41 l 669 643 q 519 617 589 617 l 519 617 q 222 744 344 617 q 100 1055 100 870 l 100 1055 q 159 1284 100 1182 q 327 1447 218 1386 q 559 1508 435 1508 l 559 1508 q 785 1449 681 1508 q 947 1284 888 1390 q 1006 1058 1006 1178 l 1006 1058 q 970 868 1006 967 q 839 628 933 768 l 839 628 m 553 746 l 553 746 q 773 837 682 746 q 863 1055 863 927 l 863 1055 q 773 1274 863 1183 q 553 1364 682 1364 l 553 1364 q 335 1274 425 1364 q 244 1055 244 1183 l 244 1055 q 335 837 244 927 q 553 746 425 746"},"A":{"ha":1515,"x_min":49,"x_max":1466,"o":"m 744 1471 l 780 1471 l 1466 0 l 1308 0 l 1077 484 l 443 484 l 213 0 l 49 0 l 744 1471 m 1012 626 l 762 1159 l 509 626 l 1012 626"},"B":{"ha":1176,"x_min":183,"x_max":1064,"o":"m 183 0 l 183 1471 l 473 1471 q 742 1430 648 1471 q 891 1302 836 1388 q 945 1111 945 1216 l 945 1111 q 897 933 945 1013 q 756 802 849 852 l 756 802 q 933 711 871 763 q 1030 584 995 658 q 1064 422 1064 509 l 1064 422 q 935 123 1064 245 q 587 0 805 0 l 587 0 l 183 0 m 497 1327 l 327 1327 l 327 856 l 411 856 q 636 885 564 856 q 750 975 708 913 q 792 1111 792 1036 l 792 1111 q 722 1270 792 1212 q 497 1327 651 1327 l 497 1327 m 410 708 l 327 708 l 327 144 l 509 144 q 745 176 670 144 q 866 274 820 207 q 911 419 911 341 l 911 419 q 847 590 911 517 q 671 690 783 663 l 671 690 q 410 708 596 708 l 410 708"},"C":{"ha":1665,"x_min":111,"x_max":1549,"o":"m 1549 1198 l 1549 1198 l 1433 1109 q 1203 1299 1337 1234 q 907 1363 1068 1363 l 907 1363 q 581 1279 731 1363 q 349 1052 431 1194 q 266 731 266 909 l 266 731 q 451 282 266 462 q 916 102 635 102 l 916 102 q 1433 344 1225 102 l 1433 344 l 1549 256 q 1275 40 1439 116 q 907 -37 1110 -37 l 907 -37 q 298 220 521 -37 l 298 220 q 111 744 111 437 l 111 744 q 338 1288 111 1067 q 905 1508 564 1508 l 905 1508 q 1277 1427 1111 1508 q 1549 1198 1443 1345"},"D":{"ha":1524,"x_min":179,"x_max":1418,"o":"m 647 0 l 179 0 l 179 1471 l 484 1471 q 963 1418 814 1471 l 963 1418 q 1298 1158 1177 1343 q 1418 717 1418 973 l 1418 717 q 1323 328 1418 496 q 1075 80 1227 160 q 647 0 922 0 l 647 0 m 320 1328 l 320 139 l 490 139 q 913 177 795 139 l 913 177 q 1174 372 1079 231 q 1269 715 1269 512 l 1269 715 q 1166 1079 1269 928 q 879 1286 1063 1230 l 879 1286 q 424 1328 741 1328 l 424 1328 l 320 1328"},"E":{"ha":1098,"x_min":180,"x_max":1023,"o":"m 180 0 l 180 1471 l 1023 1471 l 1023 1326 l 327 1326 l 327 866 l 1017 866 l 1017 722 l 327 722 l 327 145 l 1017 145 l 1017 0 l 180 0"},"F":{"ha":993,"x_min":179,"x_max":916,"o":"m 179 0 l 179 1471 l 916 1471 l 916 1326 l 325 1326 l 325 866 l 916 866 l 916 721 l 325 721 l 325 0 l 179 0"},"G":{"ha":1786,"x_min":117,"x_max":1685,"o":"m 1598 1224 l 1598 1224 l 1484 1116 q 1215 1300 1361 1237 q 929 1362 1068 1362 l 929 1362 q 600 1277 756 1362 q 357 1047 443 1192 q 271 739 271 901 l 271 739 q 360 424 271 573 q 606 189 449 274 q 950 103 763 103 l 950 103 q 1334 231 1177 103 q 1520 563 1491 359 l 1520 563 l 1051 563 l 1051 705 l 1685 705 q 1483 164 1683 364 q 946 -37 1282 -37 l 946 -37 q 300 241 538 -37 l 300 241 q 117 736 117 455 l 117 736 q 222 1125 117 945 q 510 1407 327 1305 q 924 1508 693 1508 l 924 1508 q 1276 1441 1111 1508 q 1598 1224 1441 1373"},"H":{"ha":1399,"x_min":177,"x_max":1221,"o":"m 177 0 l 177 1471 l 325 1471 l 325 854 l 1073 854 l 1073 1471 l 1221 1471 l 1221 0 l 1073 0 l 1073 710 l 325 710 l 325 0 l 177 0"},"I":{"ha":463,"x_min":158,"x_max":305,"o":"m 158 0 l 158 1471 l 305 1471 l 305 0 l 158 0"},"J":{"ha":987,"x_min":86,"x_max":808,"o":"m 660 483 l 660 1471 l 808 1471 l 808 478 q 773 160 808 249 q 654 17 737 70 q 453 -37 571 -37 l 453 -37 q 278 -2 364 -37 q 86 119 191 32 l 86 119 l 164 236 q 355 122 279 155 l 355 122 q 453 100 405 100 l 453 100 q 568 138 516 100 q 640 239 619 176 q 660 483 660 302 l 660 483"},"K":{"ha":1210,"x_min":179,"x_max":1170,"o":"m 179 0 l 179 1471 l 329 1471 l 329 919 l 916 1471 l 1115 1471 l 408 811 l 1170 0 l 975 0 l 329 686 l 329 0 l 179 0"},"L":{"ha":946,"x_min":179,"x_max":892,"o":"m 179 0 l 179 1471 l 327 1471 l 327 142 l 892 142 l 892 0 l 179 0"},"M":{"ha":1882,"x_min":112,"x_max":1770,"o":"m 254 0 l 112 0 l 321 1471 l 345 1471 l 943 264 l 1535 1471 l 1559 1471 l 1770 0 l 1625 0 l 1481 1052 l 961 0 l 924 0 l 397 1060 l 254 0"},"N":{"ha":1515,"x_min":180,"x_max":1335,"o":"m 332 0 l 180 0 l 180 1471 l 212 1471 l 1190 345 l 1190 1471 l 1335 1471 l 1335 0 l 1302 0 l 332 1112 l 332 0"},"O":{"ha":1780,"x_min":115,"x_max":1664,"o":"m 880 1508 l 880 1508 q 1439 1285 1214 1508 q 1664 736 1664 1062 l 1664 736 q 1440 188 1664 413 q 892 -37 1215 -37 l 892 -37 q 340 187 565 -37 q 115 729 115 411 l 115 729 q 218 1122 115 941 q 497 1406 320 1303 q 880 1508 674 1508 m 887 1364 l 887 1364 q 578 1279 724 1364 q 350 1050 432 1194 q 268 729 268 906 l 268 729 q 450 287 268 467 q 887 106 631 106 l 887 106 q 1204 189 1058 106 q 1431 416 1349 272 q 1512 736 1512 560 l 1512 736 q 1431 1053 1512 911 q 1201 1279 1349 1194 q 887 1364 1053 1364"},"P":{"ha":1212,"x_min":178,"x_max":1097,"o":"m 178 0 l 178 1471 l 471 1471 q 811 1449 723 1471 l 811 1449 q 1017 1322 937 1418 q 1097 1079 1097 1225 l 1097 1079 q 1019 837 1097 932 q 804 708 941 741 l 804 708 q 430 684 704 684 l 430 684 l 325 684 l 325 0 l 178 0 m 585 1328 l 325 1328 l 325 828 l 574 825 q 795 853 725 825 q 905 942 865 880 q 945 1079 945 1003 l 945 1079 q 905 1215 945 1153 q 800 1302 865 1276 q 585 1328 734 1328 l 585 1328"},"Q":{"ha":1784,"x_min":117,"x_max":1666,"o":"m 1413 160 l 1413 160 l 1631 -116 l 1450 -116 l 1300 74 q 894 -37 1120 -37 l 894 -37 q 342 187 567 -37 q 117 729 117 411 l 117 729 q 220 1123 117 941 q 501 1406 323 1304 q 890 1508 678 1508 l 890 1508 q 1442 1285 1217 1508 q 1666 735 1666 1061 l 1666 735 q 1605 424 1666 565 q 1413 160 1543 283 m 1059 607 l 1322 275 q 1514 736 1514 462 l 1514 736 q 1433 1053 1514 911 q 1203 1279 1351 1194 q 891 1364 1055 1364 l 891 1364 q 580 1280 726 1364 q 352 1051 434 1195 q 270 729 270 906 l 270 729 q 451 287 270 467 q 888 106 632 106 l 888 106 q 1208 191 1063 106 l 1208 191 l 880 607 l 1059 607"},"R":{"ha":1243,"x_min":187,"x_max":1128,"o":"m 187 0 l 187 1471 l 480 1471 q 812 1451 725 1471 l 812 1451 q 1025 1323 943 1421 q 1107 1080 1107 1224 l 1107 1080 q 1051 869 1107 960 q 889 732 994 778 q 599 684 784 685 l 599 684 l 1128 0 l 946 0 l 418 684 l 334 684 l 334 0 l 187 0 m 593 1327 l 334 1327 l 334 827 l 587 825 q 805 853 734 825 q 915 943 875 881 q 954 1080 954 1004 l 954 1080 q 914 1215 954 1154 q 809 1301 874 1275 q 593 1327 744 1327 l 593 1327"},"S":{"ha":1020,"x_min":27,"x_max":888,"o":"m 27 274 l 27 274 l 152 349 q 457 106 284 106 l 457 106 q 596 141 531 106 q 695 233 661 175 q 729 356 729 291 l 729 356 q 679 501 729 430 l 679 501 q 427 737 610 599 l 427 737 q 198 938 243 876 l 198 938 q 120 1163 120 1042 l 120 1163 q 166 1338 120 1259 q 296 1463 212 1417 q 477 1508 379 1508 l 477 1508 q 672 1457 581 1508 q 863 1267 762 1405 l 863 1267 l 743 1176 q 602 1321 660 1286 q 474 1356 543 1356 l 474 1356 q 329 1302 385 1356 q 272 1169 272 1248 l 272 1169 q 292 1076 272 1121 q 365 978 312 1031 l 365 978 q 555 831 394 950 l 555 831 q 817 580 746 690 q 888 359 888 470 l 888 359 q 767 81 888 199 q 471 -37 645 -37 l 471 -37 q 228 35 337 -37 q 27 274 119 106"},"T":{"ha":872,"x_min":33,"x_max":840,"o":"m 362 1328 l 33 1328 l 33 1471 l 840 1471 l 840 1328 l 512 1328 l 512 0 l 362 0 l 362 1328"},"U":{"ha":1341,"x_min":184,"x_max":1158,"o":"m 184 583 l 184 1471 l 331 1471 l 331 583 q 337 386 331 425 l 337 386 q 388 241 348 299 q 511 143 428 182 q 678 103 594 103 l 678 103 q 818 134 751 103 q 930 220 885 165 q 996 353 975 275 l 996 353 q 1011 583 1011 409 l 1011 583 l 1011 1471 l 1158 1471 l 1158 583 q 1120 265 1158 386 q 966 53 1081 143 q 686 -37 850 -37 l 686 -37 q 381 48 508 -37 q 211 273 254 133 l 211 273 q 184 583 184 359 l 184 583"},"V":{"ha":1438,"x_min":67,"x_max":1370,"o":"m 698 0 l 67 1471 l 227 1471 l 714 334 l 1210 1471 l 1370 1471 l 730 0 l 698 0"},"W":{"ha":1966,"x_min":96,"x_max":1870,"o":"m 511 0 l 96 1471 l 247 1471 l 546 411 l 968 1471 l 998 1471 l 1415 411 l 1720 1471 l 1870 1471 l 1448 0 l 1420 0 l 984 1113 l 539 0 l 511 0"},"X":{"ha":1247,"x_min":69,"x_max":1179,"o":"m 538 758 l 101 1471 l 273 1471 l 625 897 l 980 1471 l 1150 1471 l 712 758 l 1179 0 l 1007 0 l 625 617 l 241 0 l 69 0 l 538 758"},"Y":{"ha":1212,"x_min":63,"x_max":1149,"o":"m 538 703 l 63 1471 l 233 1471 l 609 865 l 979 1471 l 1149 1471 l 683 703 l 683 0 l 538 0 l 538 703"},"Z":{"ha":983,"x_min":56,"x_max":898,"o":"m 675 1329 l 122 1329 l 122 1471 l 898 1471 l 283 143 l 867 143 l 867 0 l 56 0 l 675 1329"},"a":{"ha":1399,"x_min":107,"x_max":1240,"o":"m 1102 1088 l 1240 1088 l 1240 0 l 1102 0 l 1102 187 q 905 26 1014 80 q 665 -28 795 -28 l 665 -28 q 271 140 434 -28 q 107 547 107 307 l 107 547 q 272 949 107 782 q 669 1116 437 1116 l 669 1116 q 912 1059 803 1116 q 1102 888 1020 1002 l 1102 888 l 1102 1088 m 680 981 l 680 981 q 464 924 563 981 q 307 762 365 866 q 248 542 248 658 l 248 542 q 307 322 248 427 q 466 159 366 217 q 679 100 565 100 l 679 100 q 897 158 794 100 q 1056 315 1000 216 q 1111 538 1111 414 l 1111 538 q 987 854 1111 727 q 680 981 862 981"},"b":{"ha":1397,"x_min":165,"x_max":1298,"o":"m 304 0 l 165 0 l 165 1508 l 304 1508 l 304 901 q 501 1063 392 1009 q 740 1116 610 1116 l 740 1116 q 1135 949 971 1116 q 1298 542 1298 781 l 1298 542 q 1133 139 1298 306 q 736 -28 968 -28 l 736 -28 q 495 29 603 -28 q 304 200 387 86 l 304 200 l 304 0 m 725 107 l 725 107 q 941 165 842 107 q 1099 326 1040 222 q 1157 546 1157 430 l 1157 546 q 1098 767 1157 662 q 940 931 1039 872 q 727 989 840 989 l 727 989 q 509 931 612 989 q 350 773 405 872 q 294 550 294 674 l 294 550 q 419 234 294 361 q 725 107 543 107"},"c":{"ha":1325,"x_min":105,"x_max":1212,"o":"m 1212 862 l 1212 862 l 1101 793 q 708 984 957 984 l 708 984 q 378 856 509 984 q 246 545 246 728 l 246 545 q 307 321 246 426 q 473 158 367 216 q 709 100 578 100 l 709 100 q 1101 291 949 100 l 1101 291 l 1212 218 q 1003 37 1134 101 q 703 -28 871 -28 l 703 -28 q 275 136 445 -28 q 105 535 105 300 l 105 535 q 185 829 105 693 q 403 1040 264 964 q 714 1116 542 1116 l 714 1116 q 923 1083 822 1116 q 1093 997 1023 1050 q 1212 862 1163 944"},"d":{"ha":1403,"x_min":109,"x_max":1242,"o":"m 1104 1508 l 1242 1508 l 1242 0 l 1104 0 l 1104 187 q 907 26 1016 80 q 667 -28 797 -28 l 667 -28 q 273 140 436 -28 q 109 547 109 307 l 109 547 q 274 949 109 782 q 671 1116 439 1116 l 671 1116 q 914 1059 805 1116 q 1104 888 1022 1002 l 1104 888 l 1104 1508 m 682 981 l 682 981 q 466 924 565 981 q 309 762 367 866 q 250 542 250 658 l 250 542 q 309 322 250 427 q 468 159 368 217 q 681 100 567 100 l 681 100 q 899 158 796 100 q 1058 315 1002 216 q 1113 538 1113 414 l 1113 538 q 989 854 1113 727 q 682 981 864 981"},"e":{"ha":1331,"x_min":104,"x_max":1226,"o":"m 1072 361 l 1072 361 l 1190 299 q 1056 115 1132 185 q 885 9 980 45 q 670 -28 790 -28 l 670 -28 q 254 147 404 -28 q 104 541 104 321 l 104 541 q 231 910 104 748 l 231 910 q 662 1116 392 1116 l 662 1116 q 1106 905 940 1116 l 1106 905 q 1226 533 1224 756 l 1226 533 l 248 533 q 369 222 252 343 q 658 100 486 100 l 658 100 q 820 129 741 100 q 953 206 898 158 q 1072 361 1008 254 m 262 654 l 1072 654 q 991 833 1044 766 q 849 941 937 900 q 664 982 761 982 l 664 982 q 389 879 504 982 l 389 879 q 262 654 305 804 l 262 654"},"f":{"ha":643,"x_min":79,"x_max":604,"o":"m 604 1508 l 604 1508 l 604 1371 q 472 1404 527 1404 l 472 1404 q 404 1388 431 1404 q 370 1350 377 1371 q 363 1235 363 1328 l 363 1235 l 363 1088 l 590 1088 l 590 968 l 362 968 l 362 0 l 222 0 l 222 968 l 79 968 l 79 1088 l 222 1088 l 222 1258 q 244 1425 222 1375 q 317 1506 265 1475 q 441 1536 368 1536 l 441 1536 q 604 1508 509 1536"},"g":{"ha":1378,"x_min":100,"x_max":1234,"o":"m 1093 899 l 1093 1088 l 1234 1088 l 1234 221 q 1194 -114 1234 -8 l 1194 -114 q 1003 -345 1139 -264 q 676 -426 867 -426 l 676 -426 q 425 -386 536 -426 q 243 -280 313 -347 q 114 -86 173 -214 l 114 -86 l 266 -86 q 426 -246 328 -194 q 669 -298 524 -298 l 669 -298 q 911 -244 812 -298 q 1051 -110 1009 -191 q 1093 151 1093 -29 l 1093 151 l 1093 207 q 900 54 1014 107 q 658 0 786 0 l 658 0 q 376 75 508 0 q 172 275 244 149 q 100 552 100 401 l 100 552 q 175 834 100 703 q 383 1040 250 964 q 662 1116 515 1116 l 662 1116 q 890 1066 784 1116 q 1093 899 995 1015 l 1093 899 m 680 981 l 680 981 q 459 924 561 981 q 299 765 357 866 q 241 545 241 663 l 241 545 q 361 249 241 366 q 672 132 481 132 l 672 132 q 983 248 865 132 q 1100 553 1100 364 l 1100 553 q 1046 773 1100 676 q 893 925 992 869 q 680 981 794 981"},"h":{"ha":1249,"x_min":156,"x_max":1105,"o":"m 156 0 l 156 1508 l 296 1508 l 296 893 q 483 1061 381 1005 q 704 1116 585 1116 l 704 1116 q 921 1054 826 1116 q 1060 888 1015 992 q 1105 560 1105 783 l 1105 560 l 1105 0 l 965 0 l 965 519 q 950 770 965 707 l 950 770 q 856 933 924 878 q 676 987 787 987 l 676 987 q 449 903 549 987 q 316 695 348 819 l 316 695 q 296 399 296 615 l 296 399 l 296 0 l 156 0"},"i":{"ha":410,"x_min":90,"x_max":321,"o":"m 205 1536 l 205 1536 q 287 1502 253 1536 q 321 1420 321 1468 l 321 1420 q 287 1339 321 1373 q 205 1305 253 1305 l 205 1305 q 124 1339 158 1305 q 90 1420 90 1373 l 90 1420 q 124 1502 90 1468 q 205 1536 158 1536 m 135 0 l 135 1088 l 276 1088 l 276 0 l 135 0"},"j":{"ha":416,"x_min":-64,"x_max":323,"o":"m 208 1536 l 208 1536 q 290 1502 256 1536 q 323 1420 323 1468 l 323 1420 q 290 1339 323 1373 q 208 1305 256 1305 l 208 1305 q 127 1339 160 1305 q 93 1420 93 1373 l 93 1420 q 127 1502 93 1468 q 208 1536 160 1536 m 139 -123 l 139 1088 l 281 1088 l 281 -164 q 232 -363 281 -301 q 96 -426 182 -426 l 96 -426 q -64 -392 25 -426 l -64 -392 l -64 -266 q 37 -295 -8 -295 l 37 -295 q 122 -248 94 -295 l 122 -248 q 139 -123 139 -218 l 139 -123"},"k":{"ha":1028,"x_min":155,"x_max":1040,"o":"m 155 0 l 155 1508 l 296 1508 l 296 650 l 799 1088 l 1005 1088 l 408 569 l 1040 0 l 842 0 l 296 489 l 296 0 l 155 0"},"l":{"ha":410,"x_min":135,"x_max":275,"o":"m 135 0 l 135 1508 l 275 1508 l 275 0 l 135 0"},"m":{"ha":1921,"x_min":155,"x_max":1782,"o":"m 155 0 l 155 1088 l 294 1088 l 294 900 q 444 1052 367 1004 l 444 1052 q 667 1116 550 1116 l 667 1116 q 817 1085 746 1116 q 933 1003 888 1054 q 1011 855 978 951 l 1011 855 q 1186 1050 1081 983 q 1412 1116 1291 1116 l 1412 1116 q 1612 1059 1525 1116 q 1740 900 1698 1002 q 1782 594 1782 798 l 1782 594 l 1782 0 l 1639 0 l 1639 594 q 1614 835 1639 769 q 1529 940 1589 900 q 1384 980 1468 980 l 1384 980 q 1198 920 1282 980 q 1074 760 1113 860 q 1035 426 1035 660 l 1035 426 l 1035 0 l 896 0 l 896 557 q 872 825 896 754 q 786 938 847 895 q 641 980 725 980 l 641 980 q 460 922 544 980 q 335 764 375 863 q 294 461 294 665 l 294 461 l 294 0 l 155 0"},"n":{"ha":1249,"x_min":156,"x_max":1105,"o":"m 156 0 l 156 1088 l 296 1088 l 296 893 q 482 1061 380 1005 q 704 1116 584 1116 l 704 1116 q 921 1054 826 1116 q 1060 887 1015 992 q 1105 560 1105 782 l 1105 560 l 1105 0 l 966 0 l 966 519 q 950 770 966 707 l 950 770 q 856 933 925 878 q 676 987 787 987 l 676 987 q 449 903 549 987 q 316 695 348 819 l 316 695 q 296 399 296 614 l 296 399 l 296 0 l 156 0"},"o":{"ha":1341,"x_min":104,"x_max":1237,"o":"m 671 1116 l 671 1116 q 1087 934 922 1116 l 1087 934 q 1237 541 1237 768 l 1237 541 q 1079 143 1237 313 q 671 -28 920 -28 l 671 -28 q 263 143 421 -28 q 104 541 104 313 l 104 541 q 254 933 104 767 l 254 933 q 671 1116 419 1116 m 671 979 l 671 979 q 372 850 497 979 q 247 538 247 721 l 247 538 q 304 318 247 420 q 458 161 361 216 q 671 105 555 105 l 671 105 q 884 161 787 105 q 1038 318 981 216 q 1095 538 1095 420 l 1095 538 q 970 850 1095 721 q 671 979 844 979"},"p":{"ha":1397,"x_min":158,"x_max":1291,"o":"m 158 -398 l 158 1088 l 297 1088 l 297 888 q 488 1059 380 1002 q 729 1116 596 1116 l 729 1116 q 1126 949 961 1116 q 1291 547 1291 782 l 1291 547 q 1128 140 1291 307 q 733 -28 964 -28 l 733 -28 q 494 26 603 -28 q 297 187 385 80 l 297 187 l 297 -398 l 158 -398 m 718 981 l 718 981 q 412 854 536 981 q 287 538 287 727 l 287 538 q 343 315 287 414 q 502 158 398 216 q 720 100 605 100 l 720 100 q 933 159 833 100 q 1091 322 1032 217 q 1150 542 1150 427 l 1150 542 q 1092 762 1150 658 q 934 924 1033 866 q 718 981 835 981"},"q":{"ha":1397,"x_min":106,"x_max":1239,"o":"m 1101 1088 l 1239 1088 l 1239 -398 l 1101 -398 l 1101 187 q 904 26 1013 80 q 664 -28 794 -28 l 664 -28 q 270 140 433 -28 q 106 547 106 307 l 106 547 q 271 949 106 782 q 668 1116 436 1116 l 668 1116 q 911 1059 802 1116 q 1101 888 1019 1002 l 1101 888 l 1101 1088 m 679 981 l 679 981 q 463 924 562 981 q 306 762 364 866 q 247 542 247 658 l 247 542 q 306 322 247 427 q 465 159 365 217 q 678 100 564 100 l 678 100 q 896 158 793 100 q 1055 315 999 216 q 1110 538 1110 414 l 1110 538 q 986 854 1110 727 q 679 981 861 981"},"r":{"ha":616,"x_min":103,"x_max":653,"o":"m 103 0 l 103 1088 l 246 1088 l 246 929 q 381 1070 310 1023 q 529 1116 452 1116 l 529 1116 q 653 1079 587 1116 l 653 1079 l 580 961 q 506 980 536 980 l 506 980 q 371 923 436 980 q 272 744 306 865 l 272 744 q 246 368 246 651 l 246 368 l 246 0 l 103 0"},"s":{"ha":795,"x_min":54,"x_max":704,"o":"m 703 969 l 703 969 l 613 876 q 394 985 501 985 l 394 985 q 278 940 326 985 q 229 835 229 895 l 229 835 q 269 734 229 782 l 269 734 q 437 619 309 685 l 437 619 q 649 463 593 538 l 649 463 q 704 292 704 387 l 704 292 q 610 65 704 158 q 375 -28 516 -28 l 375 -28 q 196 13 281 -28 q 54 126 110 54 l 54 126 l 142 226 q 369 105 249 105 l 369 105 q 512 159 453 105 q 571 286 571 213 l 571 286 q 532 393 571 346 l 532 393 q 356 509 493 439 l 356 509 q 156 659 209 585 l 156 659 q 103 828 103 733 l 103 828 q 188 1034 103 952 q 401 1116 272 1116 l 401 1116 q 703 969 551 1116"},"t":{"ha":694,"x_min":87,"x_max":641,"o":"m 278 1088 l 278 1492 l 419 1492 l 419 1088 l 641 1088 l 641 968 l 419 968 l 419 0 l 278 0 l 278 968 l 87 968 l 87 1088 l 278 1088"},"u":{"ha":1245,"x_min":138,"x_max":1090,"o":"m 138 564 l 138 1088 l 279 1088 l 279 580 q 299 324 279 394 l 299 324 q 414 166 329 224 q 615 108 498 108 l 615 108 q 814 165 732 108 q 926 313 895 221 l 926 313 q 947 580 947 376 l 947 580 l 947 1088 l 1090 1088 l 1090 554 q 1038 215 1090 329 q 880 37 985 101 q 615 -28 774 -28 l 615 -28 q 350 37 456 -28 q 191 217 243 101 q 138 564 138 332 l 138 564"},"v":{"ha":1135,"x_min":53,"x_max":1077,"o":"m 554 0 l 53 1088 l 202 1088 l 566 296 l 927 1088 l 1077 1088 l 579 0 l 554 0"},"w":{"ha":1702,"x_min":9,"x_max":1693,"o":"m 473 0 l 9 1088 l 153 1088 l 486 298 l 835 1088 l 860 1088 l 1208 298 l 1547 1088 l 1693 1088 l 1221 0 l 1194 0 l 848 779 l 499 0 l 473 0"},"x":{"ha":983,"x_min":-7,"x_max":991,"o":"m 405 571 l 32 1088 l 200 1088 l 488 685 l 776 1088 l 944 1088 l 572 571 l 991 0 l 821 0 l 488 457 l 160 0 l -7 0 l 405 571"},"y":{"ha":1098,"x_min":39,"x_max":1073,"o":"m 486 82 l 39 1088 l 187 1088 l 561 250 l 924 1088 l 1073 1088 l 424 -398 l 276 -398 l 486 82"},"z":{"ha":870,"x_min":9,"x_max":866,"o":"m 67 965 l 67 1088 l 866 1088 l 250 124 l 846 124 l 846 0 l 9 0 l 625 965 l 67 965"}," ":{"ha":567,"x_min":0,"x_max":567,"o":""},".":{"ha":567,"x_min":187,"x_max":433,"o":"m 310 220 l 310 220 q 397 184 361 220 q 433 96 433 148 l 433 96 q 397 9 433 45 q 310 -28 361 -28 l 310 -28 q 223 9 259 -28 q 187 96 187 45 l 187 96 q 223 184 187 148 q 310 220 259 220"},",":{"ha":567,"x_min":128,"x_max":430,"o":"m 128 -130 l 295 270 l 430 206 l 227 -172 l 128 -130"},"!":{"ha":604,"x_min":179,"x_max":425,"o":"m 228 1508 l 373 1508 l 373 368 l 228 368 l 228 1508 m 302 220 l 302 220 q 389 184 353 220 q 425 96 425 148 l 425 96 q 389 9 425 45 q 302 -28 353 -28 l 302 -28 q 215 9 251 -28 q 179 96 179 45 l 179 96 q 215 184 179 148 q 302 220 251 220"},"?":{"ha":1210,"x_min":170,"x_max":1028,"o":"m 315 1071 l 315 1071 l 170 1071 q 291 1391 172 1273 q 608 1508 409 1508 l 608 1508 q 916 1409 804 1508 q 1028 1163 1028 1310 l 1028 1163 q 998 1034 1028 1093 q 905 927 967 974 q 688 818 843 879 l 688 818 q 452 702 493 740 l 452 702 q 410 608 410 663 l 410 608 q 467 504 410 550 q 613 458 523 458 l 613 458 q 765 509 712 458 q 830 670 818 559 l 830 670 l 976 670 q 873 411 969 503 q 613 318 776 318 l 613 318 q 355 402 451 318 q 259 609 259 486 l 259 609 q 286 723 259 669 q 361 812 312 776 q 543 903 409 848 l 543 903 q 820 1035 759 991 l 820 1035 q 880 1161 880 1079 l 880 1161 q 807 1308 880 1248 q 610 1368 733 1368 l 610 1368 q 377 1269 460 1368 l 377 1269 q 315 1071 319 1200 m 607 220 l 607 220 q 694 184 658 220 q 730 96 730 148 l 730 96 q 694 9 730 45 q 607 -28 658 -28 l 607 -28 q 520 9 556 -28 q 484 96 484 45 l 484 96 q 520 184 484 148 q 607 220 556 220"},";":{"ha":567,"x_min":128,"x_max":433,"o":"m 310 1116 l 310 1116 q 397 1080 361 1116 q 433 992 433 1044 l 433 992 q 397 904 433 940 q 310 868 361 868 l 310 868 q 223 904 259 868 q 187 992 187 940 l 187 992 q 223 1080 187 1043 q 310 1116 259 1116 m 128 -130 l 295 270 l 430 206 l 227 -172 l 128 -130"},":":{"ha":567,"x_min":187,"x_max":433,"o":"m 310 1116 l 310 1116 q 397 1080 361 1116 q 433 992 433 1044 l 433 992 q 397 904 433 940 q 310 868 361 868 l 310 868 q 223 904 259 868 q 187 992 187 940 l 187 992 q 223 1080 187 1043 q 310 1116 259 1116 m 310 220 l 310 220 q 397 184 361 220 q 433 96 433 148 l 433 96 q 397 9 433 45 q 310 -28 361 -28 l 310 -28 q 223 9 259 -28 q 187 96 187 45 l 187 96 q 223 184 187 148 q 310 220 259 220"},"'":{"ha":405,"x_min":129,"x_max":277,"o":"m 277 1508 l 254 1045 l 151 1045 l 129 1508 l 277 1508"},"\"":{"ha":633,"x_min":48,"x_max":585,"o":"m 585 1508 l 562 1045 l 459 1045 l 437 1508 l 585 1508 m 196 1508 l 174 1045 l 70 1045 l 48 1508 l 196 1508"},"-":{"ha":680,"x_min":65,"x_max":615,"o":"m 65 492 l 65 614 l 615 614 l 615 492 l 65 492"},"—":{"ha":2048,"x_min":-12,"x_max":2060,"o":"m -12 508 l -12 637 l 2060 637 l 2060 508 l -12 508"},"(":{"ha":756,"x_min":267,"x_max":632,"o":"m 470 1536 l 470 1536 l 632 1536 q 475 1067 534 1335 q 416 514 416 799 l 416 514 q 461 5 416 250 q 583 -426 505 -240 l 583 -426 l 429 -426 q 311 -7 355 -248 q 267 495 267 234 l 267 495 q 319 1043 267 776 q 470 1536 371 1309"},")":{"ha":756,"x_min":124,"x_max":489,"o":"m 286 -426 l 286 -426 l 124 -426 q 282 43 223 -225 q 340 596 340 311 l 340 596 q 296 1105 340 860 q 173 1536 251 1350 l 173 1536 l 327 1536 q 446 1117 402 1358 q 489 614 489 875 l 489 614 q 437 68 489 334 q 286 -426 385 -199"},"[":{"ha":719,"x_min":290,"x_max":626,"o":"m 290 -398 l 290 1508 l 626 1508 l 626 1366 l 430 1366 l 430 -261 l 626 -261 l 626 -398 l 290 -398"},"]":{"ha":719,"x_min":93,"x_max":429,"o":"m 429 1508 l 429 -398 l 93 -398 l 93 -256 l 288 -256 l 288 1371 l 93 1371 l 93 1508 l 429 1508"},"/":{"ha":895,"x_min":72,"x_max":836,"o":"m 682 1508 l 836 1508 l 225 -200 l 72 -200 l 682 1508"},"&":{"ha":1550,"x_min":179,"x_max":1497,"o":"m 1292 544 l 1292 544 l 1392 438 q 1219 291 1296 353 l 1219 291 q 1366 140 1270 237 l 1366 140 q 1497 0 1442 64 l 1497 0 l 1292 0 l 1103 197 q 798 8 913 53 q 555 -37 683 -37 l 555 -37 q 282 61 385 -37 q 179 304 179 158 l 179 304 q 249 525 179 414 q 532 804 318 635 l 532 804 q 377 1020 411 950 q 342 1152 342 1089 l 342 1152 q 427 1334 342 1262 l 427 1334 q 671 1418 525 1418 l 671 1418 q 839 1381 763 1418 q 955 1282 915 1344 q 995 1149 995 1219 l 995 1149 q 943 992 995 1075 q 738 778 891 908 l 738 778 l 961 544 l 1114 391 q 1292 544 1224 483 m 647 888 l 647 888 q 808 1051 754 971 l 808 1051 q 846 1152 846 1108 l 846 1152 q 797 1240 846 1203 q 665 1277 747 1277 l 665 1277 q 538 1239 587 1277 q 489 1149 489 1201 l 489 1149 q 509 1074 489 1109 l 509 1074 q 647 888 558 989 m 629 693 l 629 693 q 384 469 442 552 q 326 314 326 385 l 326 314 q 397 166 326 230 q 571 101 468 101 l 571 101 q 724 133 649 101 l 724 133 q 1003 299 842 184 l 1003 299 l 763 545 q 629 693 703 608"},"@":{"ha":1776,"x_min":137,"x_max":1638,"o":"m 1444 301 l 1444 301 l 1550 301 q 1302 67 1416 134 l 1302 67 q 933 -27 1140 -27 l 933 -27 q 529 77 714 -27 q 241 359 344 180 q 137 750 137 538 l 137 750 q 242 1150 137 965 q 526 1438 346 1335 q 920 1540 706 1540 l 920 1540 q 1430 1347 1222 1540 q 1638 896 1638 1153 l 1638 896 q 1552 574 1638 709 q 1317 363 1465 438 l 1317 363 q 1124 305 1204 305 l 1124 305 q 1032 336 1066 305 l 1032 336 q 1005 416 1006 359 l 1005 416 q 912 344 971 373 q 788 315 852 315 l 788 315 q 550 415 644 315 q 456 678 456 514 l 456 678 q 570 1001 456 855 q 884 1147 684 1147 l 884 1147 q 1032 1114 972 1147 q 1144 999 1091 1081 l 1144 999 l 1170 1137 l 1278 1137 l 1162 483 q 1157 442 1157 451 l 1157 442 q 1171 406 1157 419 q 1207 393 1185 393 l 1207 393 q 1361 462 1266 393 q 1508 638 1455 530 q 1560 876 1560 745 l 1560 876 q 1363 1297 1560 1130 l 1363 1297 q 915 1452 1179 1452 l 915 1452 q 560 1363 719 1452 q 308 1111 400 1273 q 215 759 215 948 l 215 759 q 308 407 215 568 q 566 153 401 245 q 928 61 730 61 l 928 61 q 1191 113 1073 61 q 1444 301 1309 165 m 838 428 l 838 428 q 962 470 904 428 q 1054 594 1020 511 l 1054 594 q 1098 813 1098 703 l 1098 813 q 1042 977 1098 914 q 895 1040 985 1040 l 895 1040 q 688 942 775 1040 q 600 696 600 843 l 600 696 q 667 501 600 573 q 838 428 733 428"},"#":{"ha":1475,"x_min":184,"x_max":1290,"o":"m 1002 602 l 1233 602 l 1233 494 l 985 494 l 913 0 l 801 0 l 873 494 l 540 494 l 464 0 l 354 0 l 430 494 l 184 494 l 184 602 l 447 602 l 498 936 l 245 936 l 245 1045 l 514 1045 l 584 1513 l 691 1513 l 623 1045 l 955 1045 l 1023 1513 l 1135 1513 l 1066 1045 l 1290 1045 l 1290 936 l 1050 936 l 1002 602 m 889 602 l 940 936 l 606 936 l 557 602 l 889 602"}}}
